<?xml version="1.0" encoding="UTF-8"?>
<!DOCTYPE svg PUBLIC "-//W3C//DTD SVG 1.1//EN" "http://www.w3.org/Graphics/SVG/1.1/DTD/svg11.dtd">
<svg xmlns="http://www.w3.org/2000/svg" version="1.1" width="860px" height="897px" style="shape-rendering:geometricPrecision; text-rendering:geometricPrecision; image-rendering:optimizeQuality; fill-rule:evenodd; clip-rule:evenodd" xmlns:xlink="http://www.w3.org/1999/xlink">
<g><path style="opacity:1" fill="#f6f6f6" d="M -0.5,-0.5 C 286.167,-0.5 572.833,-0.5 859.5,-0.5C 859.5,298.5 859.5,597.5 859.5,896.5C 572.833,896.5 286.167,896.5 -0.5,896.5C -0.5,597.5 -0.5,298.5 -0.5,-0.5 Z"/></g>
<g><path style="opacity:1" fill="#15366f" d="M 622.5,40.5 C 624.936,41.871 627.603,42.871 630.5,43.5C 633.94,45.0549 637.273,46.8882 640.5,49C 697.889,90.0555 755.556,130.722 813.5,171C 820.801,176.957 825.635,184.457 828,193.5C 828.667,350.833 828.667,508.167 828,665.5C 823.909,685.591 811.743,697.758 791.5,702C 698.833,702.667 606.167,702.667 513.5,702C 501.994,696.149 498.827,687.315 504,675.5C 506.708,671.896 510.208,669.396 514.5,668C 605.5,667.667 696.5,667.333 787.5,667C 790.333,665.5 792.5,663.333 794,660.5C 794.667,507.167 794.667,353.833 794,200.5C 734.947,158.605 675.781,116.938 616.5,75.5C 553.191,118.493 490.191,161.993 427.5,206C 415.896,211.113 407.396,207.947 402,196.5C 399.45,187.114 402.283,179.947 410.5,175C 474.659,130.42 538.993,86.0865 603.5,42C 609.769,40.7427 616.102,40.2427 622.5,40.5 Z"/></g>
<g><path style="opacity:1" fill="#99a5be" d="M 622.5,40.5 C 625.716,40.3455 628.383,41.3455 630.5,43.5C 627.603,42.871 624.936,41.871 622.5,40.5 Z"/></g>
<g><path style="opacity:1" fill="#193771" d="M 607.5,163.5 C 625.642,161.386 636.309,169.22 639.5,187C 636.333,206.591 625,214.258 605.5,210C 589.009,199.375 586.342,186.041 597.5,170C 600.728,167.56 604.061,165.394 607.5,163.5 Z"/></g>
<g><path style="opacity:1" fill="#163670" d="M 255.5,174.5 C 263.225,176.029 270.225,179.195 276.5,184C 331.991,223.579 387.658,262.913 443.5,302C 451.573,307.4 457.406,314.567 461,323.5C 462.661,482.124 462.994,640.791 462,799.5C 456.921,819.914 444.088,832.08 423.5,836C 305.833,836.667 188.167,836.667 70.5,836C 49.9102,832.078 37.0768,819.912 32,799.5C 31.0086,640.471 31.3419,481.471 33,322.5C 35.6646,316.171 39.498,310.671 44.5,306C 101.5,267 158.5,228 215.5,189C 222.225,184.307 229.225,180.14 236.5,176.5C 242.711,174.899 249.044,174.232 255.5,174.5 Z"/></g>
<g><path style="opacity:1" fill="#4b618e" d="M 255.5,174.5 C 249.044,174.232 242.711,174.899 236.5,176.5C 242.609,173.492 248.942,172.826 255.5,174.5 Z"/></g>
<g><path style="opacity:1" fill="#f6f6f6" d="M 248.5,208.5 C 250.783,208.608 252.783,209.441 254.5,211C 312,251.833 369.5,292.667 427,333.5C 427.667,487.167 427.667,640.833 427,794.5C 426.193,797.973 424.027,800.14 420.5,801C 304.5,801.667 188.5,801.667 72.5,801C 69.6667,799.5 67.5,797.333 66,794.5C 65.3333,641.167 65.3333,487.833 66,334.5C 126.737,292.247 187.57,250.247 248.5,208.5 Z"/></g>
<g><path style="opacity:1" fill="#173670" d="M 240.5,295.5 C 262.252,294.748 272.085,305.081 270,326.5C 262.772,342.188 250.938,347.022 234.5,341C 219.047,327.213 218.714,313.213 233.5,299C 235.925,297.787 238.259,296.621 240.5,295.5 Z"/></g>
<g><path style="opacity:1" fill="#8796b3" d="M 618.5,356.5 C 621.304,355.362 624.304,355.195 627.5,356C 628.056,356.383 628.389,356.883 628.5,357.5C 625.236,356.676 621.902,356.342 618.5,356.5 Z"/></g>
<g><path style="opacity:1" fill="#15366f" d="M 618.5,356.5 C 621.902,356.342 625.236,356.676 628.5,357.5C 637.933,360.922 641.433,367.589 639,377.5C 638.194,380.446 636.861,383.112 635,385.5C 618.559,397.299 602.059,408.966 585.5,420.5C 584.957,420.56 584.624,420.893 584.5,421.5C 623.828,422.5 663.161,422.833 702.5,422.5C 718.34,427.534 721.84,437.201 713,451.5C 710.519,453.824 707.686,455.491 704.5,456.5C 664.828,456.167 625.161,456.5 585.5,457.5C 585.624,458.107 585.957,458.44 586.5,458.5C 601.344,469.169 616.344,479.669 631.5,490C 639.867,496.642 641.7,504.808 637,514.5C 631.032,522.072 623.532,524.239 614.5,521C 582.833,498.667 551.167,476.333 519.5,454C 510.656,444.584 510.323,434.917 518.5,425C 549.444,403.722 580.111,382.055 610.5,360C 612.818,358.007 615.484,356.841 618.5,356.5 Z"/></g>
<g><path style="opacity:1" fill="#8f9fb9" d="M 585.5,420.5 C 624.5,421.167 663.5,421.833 702.5,422.5C 663.161,422.833 623.828,422.5 584.5,421.5C 584.624,420.893 584.957,420.56 585.5,420.5 Z"/></g>
<g><path style="opacity:1" fill="#9daac1" d="M 704.5,456.5 C 665.167,457.167 625.833,457.833 586.5,458.5C 585.957,458.44 585.624,458.107 585.5,457.5C 625.161,456.5 664.828,456.167 704.5,456.5 Z"/></g>
<g><path style="opacity:1" fill="#15356f" d="M 274.5,590.5 C 275.167,590.167 275.833,589.833 276.5,589.5C 277.043,589.44 277.376,589.107 277.5,588.5C 236.839,587.5 196.172,587.167 155.5,587.5C 144.091,581.293 141.425,572.293 147.5,560.5C 150.11,557.209 153.444,555.209 157.5,554.5C 197.839,554.833 238.172,554.5 278.5,553.5C 278.376,552.893 278.043,552.56 277.5,552.5C 259.337,540.851 241.837,528.184 225,514.5C 219.413,502.864 222.246,494.031 233.5,488C 237.541,487.173 241.541,487.34 245.5,488.5C 278.332,511.084 310.998,533.917 343.5,557C 351.621,566.516 351.287,575.849 342.5,585C 310.148,608.171 277.481,630.838 244.5,653C 228.173,654.338 221.006,646.838 223,630.5C 224.4,627.098 226.567,624.264 229.5,622C 244.656,611.669 259.656,601.169 274.5,590.5 Z"/></g>
<g><path style="opacity:1" fill="#415b8b" d="M 277.5,552.5 C 278.043,552.56 278.376,552.893 278.5,553.5C 238.172,554.5 197.839,554.833 157.5,554.5C 197.5,553.833 237.5,553.167 277.5,552.5 Z"/></g>
<g><path style="opacity:1" fill="#375285" d="M 155.5,587.5 C 196.172,587.167 236.839,587.5 277.5,588.5C 277.376,589.107 277.043,589.44 276.5,589.5C 237.004,588.501 197.337,588.168 157.5,588.5C 156.508,588.672 155.842,588.338 155.5,587.5 Z"/></g>
<g><path style="opacity:1" fill="#ccd2dd" d="M 157.5,588.5 C 197.337,588.168 237.004,588.501 276.5,589.5C 275.833,589.833 275.167,590.167 274.5,590.5C 235.5,589.833 196.5,589.167 157.5,588.5 Z"/></g>
</svg>
